<?xml version="1.0" encoding="utf-8"?>
<!-- Generator: Adobe Illustrator 22.1.0, SVG Export Plug-In . SVG Version: 6.00 Build 0)  -->
<svg version="1.1" xmlns="http://www.w3.org/2000/svg" xmlns:xlink="http://www.w3.org/1999/xlink" x="0px" y="0px"
	 viewBox="0 0 1669.4 906.3" style="enable-background:new 0 0 1669.4 906.3;" xml:space="preserve">
<style type="text/css">
	.st0{fill:#46D8FC;}
	.st1{fill:#ACF243;}
	.st2{opacity:5.000000e-02;}
	.st3{display:none;}
	.st4{display:inline;opacity:0.1;fill:#FFFFFF;}
</style>
<g id="Capa_6">
	<rect class="st0" width="1669.4" height="906.3"/>
</g>
<g id="Capa_5">
	<path class="st1" d="M1517.5,687.2c-2-5.8-3.6-11.9-6.1-17.5c-2.2-5-6.1-4.6-8.7-8.5c-4.6-6.8,4.9-20,0.3-27.3
		c-1.6-2.6-4.9-3.3-6.3-6.2c-1.5-3.1,0.4-6.9-0.8-9.9c-2.4-6.2-6.7-4.2-9.2,0.9c-3.4,6.8-1.1,29.2-11.4,30.9
		c-4.9,0.8-15.2-8.5-16.3-12.6c-1.6-6.5,6-14.9,8.4-20.6c-9.1-1.6-24.7-4.6-33,1.3c-6.3,4.5-2.6,11.9-11.9,13.9
		c-0.2-3.1-0.4-6.1-0.6-9.2c-7.3,4.1-14.5,8.1-21.8,12.2c-2.2,1.2-9.7,3.9-10.9,6.1c-1.1,2,0.3,3.6-0.1,5.5
		c-1.3,5.8-3.4,6.8-8.8,7.8c-6.6,1.2-11.3,1.3-17.8,3.8c-6.6,2.5-13.3,3.7-16.7,9.7c-2.6,4.6-4.1,11.3-5.3,16.3
		c-1.7,7.5-1.7,15.2-1.7,22.7c0,4.2,1.7,10.6,0.3,14.6c-1.4,3.9-7.8,6.1-7,10.6c1.1,6.2,12.4,6.9,17.2,6.6
		c6.3-0.3,15.8-1.1,21.8-2.9c4.3-1.3,5.8-4.3,9.8-6.1c6.7-3.2,32.2-7.4,37.8,0.6c1.4,1.9-0.9,7.3,0.1,9.7c2.8,6.2,8.3,2.6,15.2,1.5
		c0.9,3.6-6.8,6.4-9.1,8c3.8,2.8,5.4,3.1,9.9,1.6c-0.5,4.7-3.8,12-1.4,16.5c4.8,9,14.2,8,21.6,8.8c7,0.8,15.8,2.7,22.9-1.1
		c5.6-3,8.1-10.6,11-15.6c3.3-5.7,6.2-10.3,12.1-13.7c6.3-3.6,8.3-6.8,11.6-13.3c3.5-7.1,6.6-13.8,8-21.5c1.8-10,0.3-13.8-6.3-21.6
		C1515.4,688.5,1516.4,687.9,1517.5,687.2z"/>
	<path class="st1" d="M1329.2,562.6c-6.5-3.8-5.9-5.2-9.1-10.9c-2.7-4.9-8.4-7.1-12.8-10.6c3.4,1.9,6.6,2.9,10.6,3.2
		c-1.5-12.5-6.9-23.5-15.9-32.7c-5.7-5.9-8.3-10-8.3-18c0-0.8,1.4-13.9,2.7-12.2c0.9,1.2-0.3,3,0.7,4.1c1.9,2.2,5.6,3.9,7.9,5.8
		c4.1,3.3,6.3,7.4,9.6,10.9c2.9,3.1,3.7,5.7,8.6,2.4c1.6-1.1,2-3.5,3.4-4.8c1.7-1.5,3.6-1.5,5.3-2.6c8.8-5.7,7-15.7,2.7-24
		c-4.2-8.1-16.3-13.5-17.7-22.6c-0.7-4.5,2.2-9.6,6.8-11.4c6.9-2.7,3.9,1.4,7.6,2.7c5.4,1.9,5-0.9,8.8-3.8c3.8-2.9,9.4-3.2,13.8-5.5
		c8.3-4.4,16.1-13,19.3-21.2c2-5.3,10.2-24.3-1.7-25.1c9.6-5.5-5.2-16.2-9.4-20.1c-11.8-11.1,3.8-13.2,5.1-23.9
		c-3.8,0-10.3-2.1-13.7,0c-3,1.9-1.1,6-5.4,5.2c-14.1-2.6,1.6-25,6.2-19.6c1.8,2.1-1.8,7.4,1.2,9.7c3.6,2.7,6.1-3.9,9-5
		c8-3.2,4.7,3.5,6.7,7.4c1.5,3,1,1.5,3.8,2.8c0.2,0.1,7,0.5,5.9,1.8c-2.5,2.9,0.7,11.6,3.9,14.7c7.8,7.5,15.6-4.8,12.4-12.6
		c-3-7.4-17.3-9.8-12.4-19.4c0.7-1.4,3.2-2.3,3.6-3.7c0.5-1.9-1.1-3-0.9-4.4c0.4-3.7,1.2-7.8,3.2-11.9
		c15.2,14.5,20.2-31.7,20.2-36.9c0.1-10.3-2.1-19.2-8.5-27.9c-2.6-3.5-8.9-12.8-13-14.6c-2.9-1.3-10-1.2-8.2,3.8
		c-3.7-1.3-7.5-2.7-11.2-4c3.8-7.5,5.8-15.5,7.3-23.7c1.1-6.4-0.1-12,5.7-15.6c3.7-2.3,9.4-1.9,13.5-3.3c6.9-2.3,10-5.6,17.8-5.6
		c-2.7,2.5,0.8,5.5,2.1,7.5c4.6-4.5,7.7-9.2,15.2-8.7c-1-6.2-1.9-7.2-8.6-8.5c2.3-7.8,3.8-15.7,10.5-21.5c1.2,3.9,1.3,9,7.1,9.3
		c3.6,0.1,5-1.7,6.6-4.8c3.5-7-5.8-14.2,6.3-14.2c-3.1,4.1-0.5,9.5-0.9,14.1c-0.3,4.5-2.2,8.4-4,12.6c-4.3,9.8-6.7,16.8-7,27.2
		c-0.1,3.2-1.2,5.9,0,9c1.8,4.8,7.5,9.9,10.5,14.2c5,7.1,9.4,16.3,19.1,18.7c0.1-6.7-2.2-17.7,0-24c0.8-2.3,4.2-4.1,4.7-5.9
		c0.6-2.4-2.2-4-2.7-6.1c-0.9-3-1.1-3.1-0.7-5.8c0.3-2.4,2.5-1.4,1.9-4.7c-0.7-4.2-8.1-11.9-13.1-10.2c-0.7-7.9-4.6-14.7,3.8-17.8
		c1.5-0.6,5.9-0.6,6.9-1.7c1-1,0.2-3,0.8-3.7c4-4,5.7-3,10.4,0.9c3.3-12.3,5.9-34,24.7-32.7c0-5.1,0.5-5.9-3.8-8.4
		c-2.2-1.2-5.5-1.2-7.9-2.5c-3.3-1.7-5.7-4.7-8.6-6.9c3.7-3.9,5-4.3,3.6-9.6c-0.8-3-5.2-6.6-0.4-9.1c4.9,6,28.3,16.9,33,8.3
		c2.9-5.3-3-5.3-4.4-9.1c-1.7-4.6,4.2-8.3,6.8-11.7c-4.6-1.5-13.3-6-18-5.6c-4.6,0.4-4.4,3.2-6.4,6.9c-9.2-11-33-17.3-47-15
		c-5.9,0.9-24.6,0.9-27.4,6.7c-2.6,5.5,6.1,5.6,5.4,11.5c-9.7-3.7-12.8-3.6-22.9,0c-1.9,0.7-11.2,5.6-13.3,4.8
		c-2.2-0.8-1.5-2.3-2.9-3.6c-4.6-4-1.9-4.7-9.8-4.9c-3.1-0.1-6.7-0.6-9.8,0.3c-3.9,1.1-5.3,4.4-8.7,5.9c-9.1,4-20-4-29.6-4
		c-6.5,0-18,2.3-24.1,4.4c-5.9,2.1-6.3,4.8-8.6,10.1c5.5,0.2,4.9,4,1.3,5.8c-5.1,2.4-17.6,1.7-23.5,2.3c0.5,2.4,1.1,4.9,1.6,7.3
		c-6.9-1.1-13.9-2.2-20.8-3.3c2-3.4,3.9-6.8,5.9-10.2c-9.2-0.4-18.4-0.9-27.7-1.3c1.5,7.5,3.5,14.9-6.5,11.8
		c-4.8-1.5-6.1-3.6-11.8-3.2c-4.7,0.4-9.5,1.7-14,2.8c-4.2,1.1-8,2-11.5,4.6c-3.3,2.4-3.5,5.7-5.8,8.2c-2,2.2-5.1,4.5-4.9-0.8
		c0.1-3.4,6.6-6.8,9-8.7c6-4.7,15.3-10.5,11.7-19.3c-2.7-6.5-13.1-6.8-19.6-5.2c-4.4,1.1-9.7,4.4-14.2,2.4c-2.9-1.3-4-5.7-7.8-5.6
		c-5.3,0.1-9.4,9.3-4.4,12.1c-15.6,7.9-35.5,17.1-46.8,30c-3.1,3.5-10.8,11.6-9.8,16.3c1,4.8,8.9,6.2,13.1,7.8
		c-7.9,5.5-9.8-2.2-17.7-1.4c-2.4,0.3-3.9,3.9-5.8,3.9c-3.2,0-7.9-7.2-9.8-9.3c-2.7,5.5-1.1,11.4,0.8,16.9
		c1.5,4.3,2.9,11.7,5.7,15.3c3.7,4.8,14.2-2.5,12.3,4.3c-2.9-1.1-7-2.5-8.7,1.2c-1.1,2.2,1.4,4.6,1.7,7.2c0.2,2.1-0.5,8.9-2.5,10.6
		c-1.3,1.1-8.2,1.9-9.5,0.9c-2.2-1.8,5.5-6.8,6.6-10.2c2.8-8.9-5.1-12.3-7.4-19.8c-1.4-4.3,0.8-12.4-2.3-15.9
		c-1.5-1.7-10.5-3.2-12.8-2.7c-4.2,1-3.6,2.7-4.2,6.6c-0.4,2.6,0.3,2.6-0.2,4.9c-1.1,4.3-3.1,5-1.3,10.5c2.1,6.3,8.4,6.2,9.8,13.1
		c-5.7-3.3-22.8-9.6-28.3-5.3c-3.9,3-0.9,4.7-7,7c-3.5,1.3-6.3,1.4-9.7,1.2c-1-0.1-1.7-2.1-2.2-2.1c-1.5-0.1-5.2,2.2-6.7,3
		c-3.5,1.8-7.3,3.3-10.7,5.1c-4.2,2.3-3.3,2.6-5.3,6c-1.9,3.3-0.3,4-5.7,4.7c7.2-10.8-5.3-14.1-14.6-10.7c2.8,4.9,9.1,11,8.4,17
		c-5.5-0.1-6.6-4.5-10.7,1.4c-2.1,3.1-2.7,4.4-0.5,8c-4.8-0.1-9.6-0.3-14.4-0.4c1.6,2,6.7,5.4,4.6,7.9c-1.7,2.1-8.6-0.9-10-2.5
		c-2.6-3.1,0.2-7.5-2.3-10.3c-2.1-2.3-9.4-0.7-8.9-4.9c8,1.5,17,4.3,25.3,3.2c13.4-1.8,4.5-12.8-3.5-15.9
		c-6.3-2.5-14.5-5.9-21.4-6.1c-3.8-0.1-5.7,1.9-7.8-0.5c-3.1-3.4,1.5-3.5,0.9-5.1c-2.2-5.2-23.9-7.7-23.3,1.3
		c-2.2-1.8-4.5-4.2-7.9-3.1c-4.5,1.4-1.3,3.7-4.4,6.2c-0.5-1-1.1-2.1-1.7-3.1c-4.7,3.5-9.4,7-14.1,10.5c0.7,0.8,1.5,1.5,2.2,2.3
		c-7.1,1.2-8.7,10.9-11.2,15.8c-1,2-4.3,5-4.9,6.7c-1.1,3.6,2.1,2.5,1.9,5.1c-0.3,3.4-6.5,0.2-7.2-1.1c-2.5,2.7-5.2,5.9-7.8,8.3
		c-1.8,1.7-5.5,3.7-7.4,5.7c-4.1,4.4-2.9,10.5-2.2,15.9c0.6,4.2,0.8,11.7,6,13.8c6.4,2.6,13.6-5.3,16-9.9c1,7.6,5.7,13.4,8.9,20.7
		c1.6,3.7,0.7,4.9,5,4.5c0.4,0,7.7-5.5,8.1-5.9c2.9-2.5,2.3-2.1,3-5.7c1-5.1,0.6-6.2,3.6-10.6c2.8-4.2,5-5.7,2.3-10
		c-2.7-4.3-7.7-3.9-6.1-10.1c1.1-4.6,4.6-4.3,7.2-6.6c3-2.6,4.5-5.5,6.1-8.8c1.5-3.1,2.5-9.7,8.4-9c5.2,0.6,3.8,3.8,2.2,6.7
		c-5,8.8-17.8,12.3-8.9,24c8.1,10.8,16.7,2.4,27.8,0.9c-1.3,2.5,0.5,4.5,3,5.3c-5.1,4.3-17.2-2.3-21,4.8c-1.5,2.7,8.2,14.6,0.6,13.5
		c2-6.6-10.8-4.6-12.1,1.5c-0.7,3.2,5.5,15.7-3.7,13.3c0.6-1.1,1.1-2.1,1.7-3.2c-8.4,0.5-15.3,8-21.9,6.6c-1.5-0.3-2.6-2.1-4.3-2.4
		c-1.9-0.4-3.7,1-5.2,0.8c-4.4-0.6-6.6-1.1-5.7-6.7c0.5-3,7.3-14.6-1.8-14.6c-8.5,0-7.7,12.7-6.3,16.8c2.9,9-0.7,6.1-8.7,10.2
		c-6.5,3.3-8.6,9.2-13.6,14.1c-1.9,1.9-4.6,4.7-7.1,5.9c-1.3,0.7-2.4,1.5-3.8,2c-1.1,0.3-2.6-1.6-3.4-1.3c-2.5,1-2.7,3.4-4.9,4.4
		c-2.1,0.9-9.3-0.9-10.4,0.3c-3.9,4.4,16.9,13,16.1,19.7c-2.5,19.4-30.6-1.1-35.1,10.8c-0.9,2.5,0.6,5.9,0.6,8.5
		c0.1,4.3-0.8,8.3-1.7,12.4c-0.9,4.1-1.2,3.6-0.5,7.9c0.9,5.8-0.4,4.7,6.7,5.4c8.8,0.9,16.6,4.3,25.2,0.1c9.2-4.4,6.6-11.5,11.3-18
		c2.2-3.1,7.1-4,9.5-7c1.5-2,1.2-5.1,2.8-6.9c3.2-3.7,2.8-2.1,7.2-1.1c5.1,1.1,4,1.1,8.7-1.5c10.3-5.7,12.4,2.8,19.8,8.8
		c3.9,3.2,9.2,3.2,12.8,6.7c3.9,3.8,3.8,8.8,4.3,13.7c4.7-1.8,8.4-6.9,6.7-11.6c8.9,1.5,0.3-5.8-2-7c-4.4-2.4-8.1-4.8-11.7-8.2
		c-2.8-2.6-14.9-14.2-4.3-14.5c-0.1,1.6,0.4,11.7,4.7,5.1c2.8,3.2,2.2,5.3,5.9,7.9c2.1,1.5,8.4,5.1,10.8,2.8
		c0.3,3.1,3.1,1.9,4.1,4.1c1.3,2.6,0.3,5.8,1.4,8.5c0.5,1.3,1.6,1.9,3.1,2c-0.4,1.4,0,2.6,1.2,3.6c2.6,2.1,5.9,2.8,9.1,3.8
		c-11.6,1.5-0.1,13.8,4.9,8.7c1-1,3-7.8,2.6-9.2c-0.7-2.4-10.7-7.2-6.3-10.4c-0.6,0.4,4.1,1.5,3.9,1.5c0.9-0.3,2.9-2.2,2.9-2.2
		c4.7-1.2,11.8-0.7,16.6-3.7c0.9,5.7-9.6,1.7-12.5,6.1c-2.3,3.5,0.3,2.4,0.4,5.1c0,2.2-0.8,5.9,0.9,7.9c4.1-3.5,3.3,0.7,4.7,2.3
		c0.2,0.2-1.5,1.1-0.7,2.2c1.1,1.6,2.7,1.8,4.5,2.5c3.8,1.4,15.6,2,14.1-4.3c3.5,1.1,6.8,3.4,10.7,3.5c2.2,0,8.1-3.5,9.4-3.1
		c0.7,0.2-1.9,15.5-2.2,16.5c-0.6,2.3-1.2,5.8-3.7,7.2c-4.1,2.3-6.3-1.5-10.5-1.1c-2.8,0.3-4.9,2.8-7.9,3.2
		c-5,0.7-11.3-1.6-16.3-2.4c-3.1-0.5-5.8-0.7-8.6-1.9c-1-0.4-0.9-2.7-1.9-3c-3.1-1.1-8.7-1.2-11.8,0.1c-10.1,4.4,2.1,9.3-4.7,11.8
		c-8.4,3.1-16-8.7-22.2-10.8c-3.4-1.1-13.4-1.7-15.1-5.6c-0.8-1.8,1.4-5.2,1.3-7.1c0-0.8-2-1.4-2.1-2.4c-0.1-0.8,0.9-2.4,0.7-3.2
		c-1.3-5.3-0.9-5.8-7.7-4.2c-5,1.2-5.6,1.7-11.2,1.1c-4.8-0.5-8.2-0.2-13,0.9c-4.7,1-9.8,1.7-14.4,3.1c-5.3,1.6-9,4.8-14.7,5.3
		c-3.6,0.3-8.8-1.6-12.3-0.3c-4.3,1.5-3.6,4.3-6.8,7c-3.3,2.8-7.2,2.8-10,6.6c-2.9,4-2.4,9.4-4.8,13.6c-2.4,4.3-6.4,5.7-10.6,8.3
		c-5.2,3.2-7.6,7-10.9,11.9c-2.6,3.9-5.1,7.8-7.6,11.8c-0.9,1.5-4,5-4.3,6.6c-0.6,0.5-1.2,0.9-1.7,1.4c0.9,1.1,1.9,2.2,2.8,3.3
		c1.7,4.5,1.9,8.1,1.8,13.1c0,2.9,0.1,5.9-0.7,8.7c-0.4,1.4-2.6,3.9-2.6,5.5c0,0.8,2.3,4,2.8,5.1c2,4.3,3.3,8.7,5.9,12.8
		c6.3,10.1,15.9,17.6,26.4,23.7c2,1.2,4.1,2.5,6.2,3.5c5.3,2.7,0,3,6,1.6c7-1.7,9.2-5.2,17.5-4.5c5.7,0.5,9,1.3,14.5-0.7
		c5.4-2,10.3-6,16.6-5.3c6.7,0.8,7.8,6.7,13.4,8.7c4.8,1.7,10.6-3.8,13.7,0.9c-3.2-0.1-7.8,3-4.7,5.6c4,3.5,6.6-2.4,5-5.4
		c7.1,4.6-0.3,12.5-2.3,17.5c-3.8,9.5,7.1,14.2,12.6,21.6c4.6,6.2,7.9,13.7,9.2,21.2c1.8,10.2-3.9,11.6-7.4,20.2
		c-3.9,9.7-2.5,20.4,3.5,28.7c2.8,3.8,5.2,5.7,5.6,10.2c0.6,7-0.9,9.2,2.2,16.4c3.6,8.2,5.7,17.3,11.5,24.2c4.3,5.1,2.3,1.4,1,6.7
		c-0.9,3.5-1.3,5.6,1.9,9.2c7.6,8.6,11.5-0.1,19.8-1c11.1-1.2,20.6,0.5,28.9-7.7c6.2-6.1,19.9-14.8,21.3-22.9
		c0.6-3.3-2.1-5.7,0.1-8.8c2.3-3.3,8-3.2,10.4-6.7c5.4-7.8-2.1-18.5,5.3-25.5c7.1-6.7,18.4-7.9,23.7-16.2c4.8-7.5,0.8-18.4-2.3-26.1
		c-4.4-11.1-5.9-19.3,2-29.5c8.5-11,20-20.4,30-30.3c7.6-7.5,23.4-21.7,19.3-33.7c-4.7-13.9-37.8,16.5-37.5-6.7
		c3.6,4.7,21.7-5.2,25.5-6.9c4.3-1.9,9.4-2.9,13.6-4.9c5.1-2.4,3.9-4.9,8-6.7c3.2-1.3,4-0.5,7.1-2.7c2.1-1.5,3.8-4.5,5.5-6.4
		c3.7-4.4,9.3-9.8,10.3-15.4c2.3-12.8-18.5-8-15.4-22.5c-9.4,2.4-11.2,9.6-21.4,10.1c1.1-9.8-5.4-14.1-7-2.6
		c-3.7-4.7-12.7-12.2-12.8-18.4c-0.2-6.5,5.3-6.7,9.1-2.6c1,1.1,0.4,3.5,1.4,4.8c2,2.7,7.6,5.2,10.7,6.6c3,1.4,6.5,3,10,2.8
		c1.9-0.1,4.8-2.3,6.4-2.2c4.2,0.2,4,3,7.6,5.1c3.7,2.1,11.7,1.8,16,1.8c6.9,0,15-2.9,21.6-1.1c3.2,0.9,5.6,3.1,8,5
		c5.1,4.1,5,3.6,11.7,3.3c-0.6,2.2-3.6,2.9-5.4,3.8c2.1,3.7,3.9,7.9,9.1,8.3c6.9,0.5,4.9-6.2,9-7.1c3.3-0.7,0.6,8.4,0.5,8.9
		c-1,7.1,2.8,12.2,6.1,18.5c7.1,13.5,14.1,27,21.2,40.6c8.7-3.9,11.1-8.8,12.9-17.5c1.2-6-1-13.4,0.9-19.1c1.6-4.7,5.7-7.5,9.4-10.8
		c6.5-5.7,12.4-10.4,16.1-17.8c2.6-5.3,1-4,7.4-3.3c5.1,0.5,5.6-1.2,9.8-2.1c-2.8,0.6,13.7,16.5,14.2,17.3c3.8,6,5.5,18.6,13.6,6.3
		c2.3,4.1,2.5,7.3,3.6,11.6c-0.2,1.3,0,2.7,0.4,3.9c1.3,0.3,2.5,0.7,3.7,1.2c2.9,4.7-0.7,3.4-0.7,7.1c0,3,3,4.4,3.7,7.2
		c2.2,8.1-3.6,9.5,3.6,16.6c6.2,6.2,2.7,15.5,8.8,21.2c-7.7-6.1-15.4-12.2-23-18.4c-1,8,4.9,17.6,10.7,23.1c2.6,2.5,4.8,3,7.2,6.7
		c3.3,5.1,6.7,10.2,10,15.4c3.3,5.1,6,13.3,12.2,15.2C1326.4,579.7,1326.6,569.8,1329.2,562.6z M852.1,295c1,1.1,1.9,1.2,1.9,2.7
		C853.4,296.8,852.8,295.9,852.1,295z M790.8,515.8C790.5,515.5,790.8,515.8,790.8,515.8L790.8,515.8z M887.6,560.8
		C887.6,560.7,887.6,560.5,887.6,560.8L887.6,560.8z M942.5,461.7C942.4,461.6,942.5,461.7,942.5,461.7L942.5,461.7z M943.5,599.8
		C943.5,598.6,943.5,598.6,943.5,599.8L943.5,599.8z M976.3,327.8c6.1,0,9.5-1.4,14.2-4.9c1.5,2.8-5.4,6.7-5.8,9.5
		C985.5,327.3,976.2,332.2,976.3,327.8z M981.9,351.1c-7.4-0.2-9.7,2.2-15.9,4.6c-6.1,2.4-14.4,0.4-13.6-7.7
		c0.5-4.5,5.2-6.3,6.9-10.3c0.8-1.8-0.8-2.9,0.6-5.3c2.1-3.5,6.1-5.5,9.6-2.6c-3.5,2.3-2.1,7.7,1,9.7c3.7,2.4,4.1,0.9,7.4-0.6
		c3.7-1.7,2.3-4,6.3-2.3c0.5,0.2,2.3,3.6,3.1,4.2c2,1.7,4.5,2,6.9,3c3.9,1.7,15.5,7.4,9.1,11.2C997.3,358.7,986.8,353.8,981.9,351.1
		z M1030.1,487.8c-4.2-2.9-10.4-5.6-13.4-9.5c-2.4-3.1-2.6-6.8-4.2-10.3c-1.9-4-5.2-7.8-7.9-11.4c-1.7-2.2-7.8-12.3-9.7-10.5
		c-0.6-13.1-19-21-17.5-33.1c3.7,1.9,1.6,7,4,9.1c2.5,2.2,4.6,1.2,7.7,2.7c4.2,2.1,8.7,9.7,11.7,13.1c2.8,3.1,7.7,7,9.2,10.8
		c1.2,2.9,0.1,6.3,1.8,9.1c1.8,2.8,6.3,4,8.7,6.5C1026.1,470.1,1030.1,479.9,1030.1,487.8z M1063.8,349.9c0.5,6.2-12.4,2.9-7.2,11.2
		c1.3,2.1,5.6,1.9,6.5,4.2c0.4,1.1-1.8,8.3-2.5,8.9c-3.6,2.9-10-0.7-13.6-3.1c-5-3.3-6.6-12.6,2-9.9c1.1-5.5-6.5-9.2-10.2-12.3
		c-4.6-3.9-3.2-5.1-5.1-9.6c0.7-1.9,0.2-3-1.5-3.4c-1.2,0.4-1.9,0.1-2.3-0.7c-1.5-6.2,5.9-11.7,11.6-13.5c9.1-2.9,8.4,0.4,8.7,7.3
		c-5.5-1.6-7.7,4.4-6.4,8.2c1.9,5.5,10.6,6.8,10.3,13.3C1057.2,350.1,1062.6,344.2,1063.8,349.9z M1225,288.2
		c-1.2-0.3-2.4-0.6-3.6-0.9C1222.6,287.3,1225,288.1,1225,288.2z"/>
	<path class="st1" d="M495,552.7c-4.7-0.4-9.5-0.9-14.2-1.3c4.7-9,5.2-18-4.4-23.3c-3.5-1.9-8.1-6-12.3-6.1
		c-6.9-0.2-6.1,3.9-12.6-0.7c-5.1-3.6-10.7-7.7-15.4-11.7c-3.3-2.8-6.1-8.8-10.5-10.2c-5.1-1.6-11.2,1.8-16.6,0.9
		c-5.9-1-9.7-4.5-13.5-8.6c-2.5,2.3-5,4.6-6.4,7.7c-0.9,1.9-2.3,8.7-5.3,3.5c-2.1-3.8,4.1-9.8,6.2-12.6c-9.5-0.9-16.4,7.3-22.8,12.5
		c-8.6,6.9-6.9,0.2-16-0.1c-6.8-0.2-13.7,8.8-19.9,0c-2.8-3.9-0.9-6.7,0.4-10.7c0.7-2.2,1.7-11.6,2.9-11.3c-3.1-3.5-4.7-6.8-10-7.6
		c-3.6-0.6-10.6,2.4-13.7-0.6c-5.9-5.8,13.9-18.1,11-25.3c-2.1-5.3-14.7-3.4-18.7-1.2c-6.3,3.5-2.5,10.5-11.5,11.4
		c-23.7,2.4-18.9-31.4-10.3-43.1c3.3-4.4,10.6-10.9,16.2-12.6c6.9-2,17.2,3.7,25.1,4.3c0.4-5.7,0.3-5.6,7-5.7
		c3.4-0.1,11.8-1.1,14.5,0.9c4.7,3.6,0.4,10.6,0.1,15c-0.4,4.8,0.1,12.1,5.9,12.6c7.5,0.7,10.4-7.9,9.2-13.1
		c-2.2-9.3-3.4-14.2,4-22.2c2.8-3,6.5-6.1,10-8.4c3.9-2.5,8.5-2.6,12.2-4.8c3.2-1.9,3-1,3.5-4.7c0.9-6.5-1.9-6.7,3.3-12.3
		c9.9-10.7,16.4-13.1,31.1-15.3c-1.5-5.1-3-7,0.5-11c3.7-4.2,14.9-7.9,20.2-9.5c-2.8,2.6-7,5.7-3.3,9.7c3.6,3.9,6.4-0.1,9.6-1.9
		c4.1-2.2,8.8-1.3,12.6-3.5c3.7-2.2,4.6-8,6.5-11.3c-7,0-18,10.2-16.8-4c0.3-3.9,5-8.7,1.2-12c-3.4-3-12.2,1.2-15.9,2.1
		c3.8-2.7,6.8-6.4,11.9-7c6.8-0.8,13.6,3.6,20.2,3c4.3-0.4,5.1-2.4,8.2-4.8c5-3.9,9.7-3.1,15.3-5.4c10.6-4.4-0.5-14.9-5.3-20.1
		c-9.2-10.2-8.6-22.2-10.8-35.1c-4,2.5-13.1,10.6-18,10c-8.3-1-1-7.9-0.9-11.6c0.2-9.7-12.4-15.4-20.7-17.4
		c-4.6-1.1-4.2-1.5-7.2,0.6c-2.8,2.1-4.7,8.1-6.3,11.1c-4.6,8.9-4.8,16.6-7.8,25.7c-2.6,7.9-4.3,4.9-10.3,7.2
		c-6.6,2.5-2.7,8.6-4.7,14.5c-1.5,4.3-6.8,11.3-8.9,4.1c-1.1-3.9,3.2-10.3,3.9-14.1c2.3-11.1-9.8-9.6-18.1-13.6
		c-6.3-3.1-10.4-9-14-14.4c-1.6-2.4-1.9-3.6-4.2-5.4c-1.5-1.1-4.2-0.7-5-2.6c-2.4-5.8,12.9-17.8,16.8-21.1c4.5-3.8,9.2-6.6,14.9-8.5
		c6.2-2,15.8-4.8,11.4-13.1c4.2-0.8,8.5-2.9,12.9-2.6c3.2,0.3,5.8,2.5,9,2.6c5.1,0.2,10.2-2.8,12.3-6.9c5.7-11.2-0.1-16.3-7.9-23.9
		c-3.8,5.4-7.7,17.2-16.1,14.7c1.1-1.8,5.9-6.6,5-8.7c-2.3-5.4-8.7-0.5-11,1.4c-0.2-8,3.1-37.3-14.4-24.9c-7.1,5-1.2,7.3-0.2,13.9
		c1.2,8-6.3,9.5-9.6,15.7c-0.9-4,2.9-6.1,4-9.4c1.7-5,1.2-6.3-0.8-11.3c-2.3,1.3-5.6,2.5-7.3,4.6c-2.2,2.7-0.8,5.9-2.4,8.4
		c-3.2,5.3-9.2,2.2-14.2,0c-3.4-1.5-5.7-2.8-8.2-5.4c-2.3-2.5-2-4.9-6-5.3c-8.4-0.9-8.2,8.1-8.7,12.9c-5.5,0.1-1.6-5.3-3.2-7.5
		c-1.6-2.1-6.8-1.9-9.3-2.3c-9.5-1.6-11.2-2.3-5.8-10.3c-7.1-4-12.7-8.1-18.1-14c-4.5-4.9-7.9-7.7-15.2-8.2c0,2.5,1.4,6-2.2,6
		c-1.7,0-2-11.9-2.2-13.4c-4.3,1.6-8.8,3.4-13.5,3.9c-4.9,0.5-8.8-1.5-13.4-1.8c-5.8-0.4-10,6.8-15.2,1.5c-2.8-2.8-3.2-7.3-6.2-10.3
		c-3.6-3.5-8.4-6.3-12.5-9.2c-9.5-6.8-18.6-14.6-28.4-20.9c-8.7-5.6-20.2-0.9-30,0.8c-6.3,1.1-24.4,1.6-28,6.3
		c-1.8,2.4-2.2,12.6-0.5,15c5.1,7.3,10.6,2.6,6.3,13c-3.5-2.6-6.6-7-10.7-8.8c-3.4-1.5-14.8-1.1-17.7,1.8c-1.8,1.8,0.5,13,2.1,14.8
		c1.9,2.3,14.7,3.5,14.8,5.7c0.1,2.8-16.1,4.6-18.4,6c-5.4,3.1-11.1,11.2-13.7,16.5c-3.4,6.9-1.1,15.4,2,22.2
		c3.2,7.1,8,9.9,14.6,4.3c1.8,8.7-18.5,13.9-24.4,16.1c-6.3,2.3-12.7,3.6-19.1,5.6c-6.4,2-6.6,3-7.1,9.4c17.2-4.6,38.5-7.4,54.4-15
		c5.5-2.6,8.7-6.8,12.7-11.1c5.3-5.6,11.3-9.8,17.9-13.9c-2.3,3.5-4.6,7.1-6.9,10.6c3.6,0.4,7.1,1.9,10.8,1.4
		c5-0.6,10.9-4.2,15.5-6.1c1.8,6.7,2.1,8.7,9.1,11.3c7.5,2.8,15.9,6.4,16.3,14.9c0.1,2.2-3.8,16.4,3.9,14.2c4-1.2,2.2-10.8,2.3-13.6
		c2,0,1.7,22.8,1.7,26c0,3.5-0.8,8,0.7,11.4c1.2,2.6,3.5,3.1,4.2,6c2.1,8.6-5.1,12.1,2.9,19.8c5.8,5.5,9.4,9.7,7.1,17.8
		c-1.6-0.7-3-1.6-4.3-2.7c7.8,0.9,2.9-7.7,0.7-10.1c-3.3-3.5-8.5-9.4-13.9-6.6c4.7,5,6.5,11.6,11.3,16.4c-3.9-0.6-18,35.2-19.5,38.4
		c-3.9,8.5-5.2,15.7-4,24.8c0.9,7.3,1.7,18.2,6.1,23.9c1.8,2.4,4,1,5.5,4.5c1.3,3.1,0.4,8.4,1.3,11.9c1,3.9,2.7,7.7,4.1,11.5
		c1,2.5,1.9,5,2.8,7.5c-0.2,1.2-0.9,1.9-2.4,2.1c-0.5,7.3,3.6,5.9,6.4,11.6c1.4,2.8-0.9,6.3,1,9.5c1.9,3.3,7.5,6.6,10.5,9.2
		c-1.6-9.7-2.8-19.5-5.4-29c-0.5-1.9-5.6-21.3-2-20.8c4.2,0.5,2.5,5.6,2.4,7.5c0,4.5-0.4,6.4,2.1,10.7c5.5,9.9,13.7,19.8,17.4,30.5
		c3.2,9.2,0.7,14.7,7.5,22.8c7.2,8.6,12.5,13.6,23.6,17.8c4.1,1.6,6.5,2.5,10.6,1.9c4.1-0.6,3.4-2.3,7.9-0.4c5,2,9.7,7.5,14.3,10.4
		c3.5,2.2,7.3,3.7,10.9,5.7c8.2,4.8,6.2,11.7,12.1,17.3c6.8,6.4,15.8,8.5,24.9,10.1c0.7-4.3,2.6-9.4,7.9-6.8
		c4.9,2.4,4.7,12.4,4.2,16.7c-0.6,5-3.2,10.5-6.3,14.7c-3.4,4.7-8.3,5.9-10.5,11.2c-0.5,1.2-2.2,5.8-1.7,7.2c0.7,2,4.3,1.5,4.1,4.1
		c-0.3,4-7,4.2-6.2,9.6c1,7.5,9.9,17,13.9,23.7c4.5,7.6,8.8,18.6,15.2,25.1c7.8,7.9,24.7,8.7,28.8,19.7c3,8.1,1.3,20.5,1.7,29.1
		c0.5,10.2,1,20.5,1.5,30.7c0.7,14.9-1,31.4,1.4,46.1c1,6.3,3.9,5.1,7.6,9.6c3,3.7,1.5,10.3,1,14.7c-0.1,1.1,0.4,4.2-0.3,5.1
		c-0.8,1.2-3,1.1-3.5,1.8c-1.3,2-3.4,2.5-1.2,5.9c2.7,4,7.5,1.5,7.8,7.7c0.2,3.5-3.6,4.9-3.9,7.9c-0.3,3.1,4.1,7.8,5.8,10.1
		c5.9,8.1,11,12.2,20.2,17c0.6-6.3,3.6-10.2,7.9-14.9c-2.4-0.2-4.9-5.3-4.8-7.1c0-3.6,5-7.1,7-10.1c1.4-2,5-6.8,4.5-9.2
		c-0.7-4-5.3-3.1-6.8-6.2c-1.8-3.7,2.4-9.5,3.3-13.5c0.9-3.9-1.3-11,0.8-13.9c1.8-2.6,7.7-1.3,9-3.6c1.2-2-1.2-7.4-1.5-9.5
		c7.7,0,11.3-2.3,15.6-7.9c6.4-8.3,3.1-10.2-3.7-17.6c7.5,2,9.3,3,15.5-2c5.5-4.4,10.1-8.9,13.6-14.9c3.5-6,5.7-12.4,6.5-19.1
		c0.6-5.2,0.2-7.8,4.1-11.6c3.7-3.7,11.2-7.3,16.5-8.5c5.9-1.3,9.8-0.6,13.7-5.6c5.4-6.9,6-19.6,6.4-27.9c0.2-4.1-3.5-9.3-2.5-12.9
		c0.9-3.5,8.6-7.3,11.5-9.4c7.6-5.6,12.7-17,8.1-26.1c-3.2-6.3-15.8-9.1-22.2-11.5C521.5,559.8,508.4,556.6,495,552.7z M406.6,324.7
		c-1,0.7-3.3,2.1-4.8,3C403.4,326.7,405,325.7,406.6,324.7z M207,223.6c0.4-0.3,0.8-0.6,1.1-0.9C207.9,223.1,207.4,223.3,207,223.6z
		 M369,553.3C369,553.3,369,553.3,369,553.3L369,553.3z M375.6,562.4C374.9,561.2,375.8,562.6,375.6,562.4L375.6,562.4z"/>
	<path class="st1" d="M599.9,214.4c4.8-5.5,7.7-12.3,15-12.7c4.8-0.3,9.8,2.2,14.6,0.7c5.2-1.6,7.3-7,11.7-9.5
		c5.6-3.1,10.6-0.8,12-7.7c2.1-11-20.7-12.1-16-21.4c2.7-5.3,8.9-2,12.2-0.4c6.8,3.3,8.4,3.1,13.8-2.3c-2.4-1.3-4.9-2.5-7.3-3.8
		c5.1-6.4,25.3-27.2,5.3-28.3c1.8-5,5.5-6.1,9.8-8.8c7.2-4.6,13.7-10.8,20.3-16.2c-9.4-9.4-25.2-7.5-34.7,1.3
		c1.4-2.9,2.8-5.8,4.3-8.7c-7.1-1.6-9.3-2.2-13.1,4c-6.2-4.8-12.1-3.3-19.4-2.5c5.4-7.9,22.2-4.9,30.9-5.2c-2.8-3.4-4.4-8-8.5-10.2
		c-4.9-2.7-16-2.9-21.8-3.8c-5.1-0.8-22-4.1-19.8,5.4c-3.8-1.2-11.8-1.5-9.1-7.3c-6.6,1.3-10.4,1.5-13.1,7.7c2.7,0.9,5.3,1.7,8,2.6
		c-5,3.3-4.6,3.8-9.5,1.5c-5.2-2.4-8.3-4.8-14.4-6.5c-0.8,3.9-1.2,8.3-7.1,6.9c-4.1-1-4-5.4-7.7-7.2c-6.6-3.2-23.6-2.9-22.9,6.7
		c-7.3-0.9-13.6-2.3-16.5,4.7c-3.8,9.2-3.6,5.6-13.2,5.1c-3.2-0.1-0.8-1.9-3.7-0.1c-0.7,0.4-2.2,3.2-2.3,4.1
		c-0.2,2.5,1.8,6.4,4.6,7.5c1.4,0.6,11.5-1.3,11.5,0.3c0.4,7.9-18.1-5-17.5,5.5c0,0.6,2.7,2.9,3,3.7c0.4,1-1.9,2-1.6,3.1
		c1.6,4.6,6.6,7,11.2,7c5.9,0,9-3,14.6,0.5c4,2.4,8,7.6,10,11.6c5.7,11.2,3.4,15.7-2,25.9c3.2-0.5,9-2.6,11.9-0.6
		c8,5.5-6.4,5.2-9.4,5.3c3.9,3.6,7.2,6.8,12.7,7.8c-4.6,5.7-13.3,13.2-15.3,20.3c-1.9,6.4,2.5,11,2.5,16.9c0,2.4-1.9,3.8-2,6.2
		c0,3.1,2.5,8.5,4,11.4c2.8,5.7,7.5,9.4,14.9,7.4c0.3,4.1,3.3,13.8,10.6,10c3.9-2,3.1-9,4.2-12.5
		C570.9,224.3,584.8,219.9,599.9,214.4z"/>
	<path class="st1" d="M537,186c1.7-5.9,1.8-12.3-6.4-9.1C525,179.1,531.9,187.3,537,186z"/>
	<path class="st1" d="M295.3,120.4c3.5-0.9,7.9-0.7,11-2.7c2.7-1.9,3.2-5.2,5.8-7.2c6.1-4.7,19-5.2,26.6-5.7
		c-2.3-2.4-6.3-8.6-9.5-9.5c-3-0.9-3.9,1.8-6.5,1.4c-5.2-0.8-6.9-11.8-15.6-7.4c-3.8,1.9-1.1,1.5-2.5,4.9c-1.4,3.4-2.7,5.1-5.8,7.8
		c-1.6,1.4-4.6,3-5.6,4.8C290.8,111,293.8,115.6,295.3,120.4z"/>
	<path class="st1" d="M339,77.1c0.9,10.4,12.3-2.2,15.1-5.2c-3.6-0.9-8.9-3.4-12.4-3.6c-4.1-0.3-1.9,0.7-6.6,2.6
		c-8.7,3.5-11.3-2.3-16.8,6.7c3.5,1.2,10.2,4.9,13.8,4.7C336.6,82,336.4,80.7,339,77.1z"/>
	<path class="st1" d="M335.6,85.5c-1,7.2,8.2,7.7,13.5,9.6c-4.4,2.3-1.3,5.8,0.1,8.8c9-3.7,14.8-6.8,20.8,2c5.4-5,7.7-7,5.8-14.3
		c-1.6,0.6-3.3,1.1-4.9,1.6c-0.4-4.1,0.6-6.7,2.8-10.2c-2.7-0.3-6.3,0.3-8.5,2c-5.5,4.3,0.4,1.9-2.2,5.3c-3.5,4.6-3.3,2.8-6.3-1.7
		C349.9,78.6,345.5,81.6,335.6,85.5z"/>
	<path class="st1" d="M360.1,75.2c2.6,1.2,16.4,5.5,15-1.4c-0.4-2.2-8.5-2.9-10.5-3.2c3.7-0.2,7.5-0.5,11.2-0.7c0.4-4.8-4.8-6.1-9-5
		C361.1,66.5,361.6,70.5,360.1,75.2z"/>
	<path class="st1" d="M403.8,85.1c8.4,2.4,1-11.6-2.3-13.6c-7.6-4.4-13.4,0.9-12.3,9.1C396.1,79.6,398.6,80.9,403.8,85.1z"/>
	<path class="st1" d="M410.2,85.1c0.8,2,1.5,4,2.3,6c4.6-2.4,11.9-3.9,9.2-10.2c-2.2-5.2-8.1-4.2-12.9-3.6
		C411.4,80,413.5,81.8,410.2,85.1z"/>
	<path class="st1" d="M431.5,76.7c5.2,3.5-6.4,3.4-8.2,3.6c9.5,12,15.7,11.5,30,5.7c-5-6.9-9.6-14.3-15-21c-0.9-1.2-1.8-3.7-3.7-4
		c-3-0.5-6.7,4.3-5.9,6.7c-5.1-3-10.8,2.2-7.7,6.9C423.4,78.3,427.5,76.7,431.5,76.7z"/>
	<path class="st1" d="M330.3,150.7c4-0.2,14,1.8,15.3-3.7c2.6,2.7,4.9,8.2,8.9,9.2c5.9,1.5,8.2-3.9,8.9-8.2c1.6,1,3.2,2.1,4.8,3.1
		c0.3-3.1,2-6.6,0.4-9.6c-2.4-4.4-4.7-2-5.2-8c-0.4-4.6,2-11.3-0.1-15.5c-0.8-1.6-2-3.4-4-4.2c-4.3-1.6-4.7,1.7-7.6,5.3
		c-4.4-3.5-11-11.1-17-11.6c-4.1-0.3-10.6,2.1-14,4.1c-4.3,2.5-8.8,7.1-6.4,12.3c2.3,5.1,9.1,4.8,14.1,6.1c-0.7,1.5-1.5,3.1-2.2,4.6
		c-4.8-2.8-8.5-7.3-12.2-3.6c-4.8,4.7-0.7,4,1.6,6.9c0.7,0.9,2.4,0.8,3,2.1c0.9,1.6-0.9,3.4-0.2,4.9
		C320.4,149.5,325.4,149.5,330.3,150.7z"/>
	<path class="st1" d="M372.5,124.5c3.6,5.3,5.5,10.1,5.8,16.5c4.2-2.3,11.6-3.7,13.4-8.2c2.5-6.4-1.6-6.8,4.4-12.4
		c-6.5-4.5-12.2-5.6-15.5,1.8C376.5,119.2,375,121.5,372.5,124.5z"/>
	<path class="st1" d="M397.8,134.5c3.2,0,7.3,0.9,8.1-3.1c4.5,7,13.8-3.4,17.4-6.2c-6-1.9-13.5-7.4-20-5.4
		C394.4,122.5,396.2,128.3,397.8,134.5z"/>
	<path class="st1" d="M400.4,113.3c6,2,9.2,4.6,13.4-1.3c1.5,9.3,11.5,9.4,20.3,12c4.5,1.3,11,4.7,15.6,4.8c5.3,0,7.7-3.7,11.3-6.7
		c-4.5-3.3-8.1-7.6-13.8-7.5c-4.7,0.1-7.4,2.3-12.7,0.8c-9.5-2.7-5.3-7.8-9.1-14.4c-1.9-3.2-13.1-10-17.1-7.3
		c-4.5,3.1,0.2,6.8,2.7,9.2c4.3,4.3,3.9,2.9,2.7,8.8C406.2,109,404.1,106.3,400.4,113.3z"/>
	<path class="st1" d="M391.2,108c2.7,7.5,11.2,0.3,12-4.6c2.1-12.9-14.8-5.3-19.8-1c3.3,0.1,6.6,0.3,9.9,0.4
		C392.7,104.5,392,106.3,391.2,108z"/>
	<path class="st1" d="M489.6,193.1c-2-5-6.6-11.9-5-17.2c1.2-4.1,5.6-5.3,4.2-9.3c-0.9-2.4-5.7-5.6-7.7-7.3
		c-5.2-4.3-5.4-4.2-11.4-0.4c-1.6-3.2-3.5-10.5-7-12.4c-3-1.6-6.4,1.4-9.4,0.8c-6.9-1.3-5.9-9.6-7.4-16.1
		c-3.4,2.2-11.2,5.3-13.3,8.7c-1.4,2.3,0.4,5.2-1,7.5c-2.8,4.6-3.4-3-2.4-5.7c1.9-4.9,5.6-9.1,8.7-13.4c-8.6-0.8-19.9-0.6-24.2,7.9
		c-1.9,3.9-3.4,16.6,0.1,20c2.1,2,9.7,1.4,12.9,1.9c5.1,0.9,10.5,2.4,15,4.8c8.5,4.5,10.1,12.9,20.9,12.4
		c-1.9,9.3-12.5,32.4-25.1,19c-2.4,2.9-8.1,10.5-2.5,13.9c3.3,2.1,10.4-1.9,13.4-3.2c2.6,6.3,3.1,11.9,8.8,16.4
		c2.7,2.2,11.6,9.2,15.5,8.3c2.8-0.7,10.7-10.1,11.2-12.5c1.5-8.2-12.2-11.7-4.6-19.7c2.5,3.9,5,7.8,7.6,11.7
		c4.8-3.9,16.8-9.6,14.2-15.8C498.5,188,494.8,191.7,489.6,193.1z"/>
	<path class="st1" d="M448,138c4.7,6.9,10.4,5.7,19.1,6.6C460.7,138.4,456.2,130.3,448,138z"/>
	<path class="st1" d="M459.1,71.4c-1.7,12.9,14.5,7.7,22.1,5.9c1.4,3.9-7.6,8.6-11,8.2c-2.9-0.3-5.1-3.5-7.9-4.4
		c-3.4-1-6.8-0.6-10.2-0.3c2.6,3.3,5.1,6.7,7.7,10c-3.6,1.8-10.1-7.8-12.4,0.1c-1.5,5.1,6,7.7,9.4,7.7c0.6,8.9-7.4-1.2-9.9-2.3
		c-3.7-1.6-4.1-0.5-7.1,1c-3.2,1.6-4.4,2.7-9,3.7c5.6,8.5,13.9,6.8,22.7,9.8c3.5,1.2,5.9,4.4,9.5,4.1c2.6-0.2,5.5-3,7.8-4.1
		c-1.4-1.3-2.8-2.6-4.2-3.8c4.7,1.3,5.9-2.9,9.6-4.5c0.9-0.4,7.8-0.4,8.3-1.5c2.1-3.6-2.9-3.7-3.4-6.9c-0.6-4.2,7.3-0.1,11.3-0.1
		c9.6-0.1,19.8-5.7,28.6-8.9c-3.3-0.9-6.7-1.7-10-2.6c6.2-5.1,15.7,1.7,22.7-5.3c-9.5-3.1-18.9-6.2-28.4-9.3
		c-5.8-1.9-13.4-6.3-19.3-4.5c-2.7,0.8-4.1,4.3-7.3,4c-2.7-0.3-4.8-3.7-6.9-4.9c-6-3.5-9.6-3.1-10.6,3.1c-5.8-4.9-8.5-4.1-15.6-2
		C447.9,70.3,452.7,70.1,459.1,71.4z"/>
	<path class="st1" d="M400.1,198.1c-0.2,3.7-0.4,7.3-0.5,11c6.3-3.5,9.8-6.1,16.3-2.4c5.9,3.3,3.8,2.9,10.1-1.8
		c-6-5.4-12-10.8-17.9-16.1C405.4,191.9,402.7,195,400.1,198.1z"/>
	<path class="st1" d="M1371.4,570.8c4.8-5.7,6.9-8.8,8.7-15.7c1.6-6.2,1.7-9.5,9.2-8c-2.6-5-8-11-6.9-17c0.9-4.7,5-6.1,8.9-8.7
		c-5.5-3.7-10.9-7.1-14.3-12.7c-4.2,7.2-8,14.3-15.3,19.3c-4.9,3.3-12.4,5.6-11.3,12.6c-5.8-0.3-9.6-1.4-10.6,3.7
		c-0.6,3.2,2.5,9.4,3.7,12.5c2,5.5,1.9,5.1,7.8,6.6c4.5,1.1,15,2,12.8,8.6C1366.4,571.6,1368.9,571.2,1371.4,570.8z"/>
	<path class="st1" d="M1496.8,602.6c5.3-5.7,13.1-13.6,17-1.7c1.4,4.4,0.2,5.6,4.1,8.7c2.7,2.1,11.4,6.8,15,4.1
		c5.1-3.8-10.5-14.3-12.5-18.5c-2.9-6,0.5-3.3,1.1-7.5c0.1-0.9-1.2-4.5-2-5.2c-2.7-2.7-3.4,0.2-5.8-1.6c-3.1-2.3-4.4-7-7.5-9.9
		c-5.1-4.8-10.3-5.4-16.6-8c-4.8-2-7.5-6.4-12.9-5.5c-4.2,0.7-6.5,6.6-11.2,6.3c-10.3-0.6,2.6-16.3-13.2-13.3
		c-13,2.4-7.8,8.4,1.4,9.9c-3.4,2.5-7.3,7.7-1.7,11.2c6.4,4,1.6-4.3,6.3-6c-1.9,0.7,7,10,8,10.9c4.8,4,11,6.6,12.7,12.5
		c1.4,4.9-1.4,7.1,3,11.2C1486.5,604.1,1490.8,602.8,1496.8,602.6z"/>
	<path class="st1" d="M1594.7,767.1c-1.9-0.2-3.8-0.5-5.6-0.7c0.8,8.4,5.4,19.7-1,27c-3.5,4-6.5,3.6-7.8,8.9
		c-1.1,4.5-0.2,13,3.4,16.3c5.8-4.6,27.9-15,25.2-24.1c-1.1-3.6-4.5-1.8-7-4.5C1597.7,785.5,1596.5,772.7,1594.7,767.1z"/>
	<path class="st1" d="M1549.4,824.9c-6.4,2.6-17.5,4.2-22.5,8.8c-6.1,5.5,7.1,13.7,13.7,12.6c4.8-0.8,7.9-7.4,11.7-9.8
		c3.4-2.2,9.7-1,12.2-3.2c1.7-1.5,0.4-4.7,1.5-6.6c1.9-3.3,6.8-5,9.1-8.1c4.8-6.2,1.9-6.9-1.9-13.5
		C1565.2,811.7,1557.3,818.3,1549.4,824.9z"/>
	<path class="st1" d="M1401.7,546.4c9.2,2.6,13.3,1.4,20.2-4.6c-6.1-5.1-4.8-0.7-10.6,1c-5,1.5-7.6-3.2-12.5-2.7
		c-7.9,0.9-8.8,11.4-10.3,16.9c-1,3.4-2.5,6.3-2.2,9.8c0.2,1.7,1.6,3.2,1.7,5.2c0.1,1.4-2.1,4.2-1.3,5.6c1.2,2,5.5,2.5,7.5,1.1
		c2.7-1.7,2.1-12,2.4-15c0.8,3.6,0.4,14.9,6.1,15.3c9.3,0.6,2.8-13.7,2-17.1c-1-4.6-1-2.5,1.9-6.6c1.2-1.7,5.9-2.5,1.8-5.1
		c-3.2-2-4.6,2.4-8.2,2.2C1394.4,552,1397.7,548.2,1401.7,546.4z"/>
	<path class="st1" d="M1431.7,551.6c4.5-8.4-1.3-9.1-4-17.1C1426.1,538.3,1418.9,553.9,1431.7,551.6z"/>
	<path class="st1" d="M1435,565.7c3-2.1,4.7,2.3,6.7,1.4c5.1-2.2,0.2-6.1-3.6-7.1C1428.1,557.5,1424,569.5,1435,565.7z"/>
	<path class="st1" d="M1344.7,590.4c2.1,3.5,8.4,3.1,12.1,4.2c6.1,1.8,7.1,2.3,12.6-2.3c-12.2-5.2-25.9-14.1-40.3-13
		c-3,0.2-8.8,1.8-7.1,5.8C1323.3,588.5,1341.2,589.8,1344.7,590.4z"/>
	<path class="st1" d="M1372.4,598.2c3.3-1.1,5.9-1.8,9.1-2.4c1.8-0.4,2.6,2,4.6,0c4.5-4.6-4.3-5.3-7.1-5.1c0.3,1.5,0.6,2.9,1,4.4
		c-4.6-2.6-6.3-2.9-11.1-0.5C1369.9,595.8,1371.1,597,1372.4,598.2z"/>
	<path class="st1" d="M1394.1,604.2c-4.4-6.1-4.1-6.1-12-4.9C1386.8,603,1387.9,604.2,1394.1,604.2z"/>
	<path class="st1" d="M1405.4,593.7c-6.3-1.7-15.3-3.8-17.5,3.1C1396.3,598,1397.9,597.7,1405.4,593.7z"/>
	<path class="st1" d="M1410.8,603.8c4.1-3.5,8.5-4.1,13.8-4.8c-4-6.4-10.8-5.6-15.9-1C1405.3,601,1402.9,607,1410.8,603.8z"/>
	<path class="st1" d="M1547.5,578.7c0.3-4.1-4.4-13.2-9.7-13.5c-8.8-0.5,1.6,7.3,3.9,9.1c-3.9-1.5-4.2,3.9-6.8,5.4
		c-2.7,1.5-10.3-0.4-9.6,4.4c1,7.4,18.2,1.2,17.7-6.9C1543.4,579.6,1545.7,579.4,1547.5,578.7z"/>
	<path class="st1" d="M1376.2,505.5c5.1,0.4,10.5-5.1,12.7-9c2.9-5.1,1.1-6-2.3-11c-2.3,3.5-3.4,7-6.1,10.4
		C1378.3,498.6,1374,501.5,1376.2,505.5z"/>
	<path class="st1" d="M1405.9,485.3c-2.5-0.9-5-1.8-7.6-2.7c-0.1,3.8,0.6,17.1,6.6,18.6c3.7,0.9,9.4-8.3,8.1-12.5
		c1.5,1.3,3.2,1.6,5.1,1c-0.5-6.9-1.9-10.7-10.3-9.1c1.6,1.8,3,3.8,4.3,5.8c-1.8-0.2-3.5-0.3-5.3-0.4c-0.1,3.1-1.1,7.1,1,9.9
		C1404.9,493.3,1406.1,488.5,1405.9,485.3z"/>
	<path class="st1" d="M1421.5,512.9c6.8-6.5-1.6-16.5-7.3-20.2c0.8,5.7,0.2,7-4.6,9.8c-4,2.4-11.7,3.1-9.1,9.8
		c2.8-0.8,5.8-1.4,8.2-3c1.1,2.7,4.2,8.7,8,8.8c4.3,0.1,5.3-4.8,1.5-6.9C1419.5,511.3,1420.6,511.9,1421.5,512.9z"/>
	<path class="st1" d="M1399.5,456.9c-2.3-5.3-10.3-11.9-14.5-3.6c-3.2,6.4,2,18.2,7.5,22.2c-4-0.5,0.1,8.2,3.5,7.9
		c4.8-0.5,0.9-5.5-0.6-7.3c3.3-2.8,12.6,8.6,13.2,0.2c0.4-5.4-8.2-4.6-10.5-7.5C1394.7,464.6,1399.8,461.5,1399.5,456.9z"/>
	<path class="st1" d="M1407.1,371.4c5.8-0.3,0.9,10.9,8.3,9.1c3.4-0.8,4.6-8.3,3.5-10.7C1415.9,363.2,1403.8,360.9,1407.1,371.4z"/>
	<path class="st1" d="M1427.1,358.6c-6.8-2.2-12.3,8-6.9,12.2C1426.3,366.1,1427.8,365.9,1427.1,358.6z"/>
	<path class="st1" d="M1410.4,361.6c7,1.6,9.8-6.2,16.9-4.2c1.7,0.5,3.3,2.8,5.1,3c4.7,0.5,2-0.8,5.2-3.1c3.8-2.8,7.7-2.2,11-6.6
		c6-8-2-12-1.2-19.9c0.3-2.5,2.7-3.7,2.8-5.6c0.1-1.5-3.8-6.7-4.8-7.8c-3.9-4.3-9.6-5.4-11.5,2c-0.2,0.7,4.1,26.5-4.6,17.3
		c-1.9,3.9-5,9-1.9,13.2C1421,342.6,1404.2,356.9,1410.4,361.6z"/>
	<path class="st1" d="M1444.8,288.6c-3,6.2-11.3-3.6-13.4-6.1c-7.1,3.7,0.4,9.2-1,14.7c-1.6,6.3-7.2,7.6,0.3,13.9
		c1.4,1.2,3.2,3.4,5.5,2.9c4.8-1.1,1.9-4.5,1.9-6.1c0-1.3-3.4-0.6-1.8-3.2c2-3.2,5.7,2.1,6.8,3.2c0.2-6.9,3.3-11.2,10.9-12.5
		c-1.3-2-2.6-4-3.8-6c4.7-0.9,7.1-5.5,9.8-8.6c-3.9-1.9-3.9-2.7-7.3-0.2c-2.5,1.7-4,5.5-2.9,8.2
		C1448.2,286.3,1447.1,286.1,1444.8,288.6z"/>
	<path class="st1" d="M1465.3,271.6c0-1.2,0-2.4,0-3.6c-5.7,2.3-8.1,5.7-6.9,11.6C1462,277.7,1463.7,275,1465.3,271.6z"/>
	<path class="st1" d="M1475,236.3c-7.1-1.6-8.1,0.7-7.9,7.1C1471.9,244.3,1473.2,239.4,1475,236.3z"/>
	<path class="st1" d="M1465.3,252.4c6.3,4.4,5.7-5.2,5.7-8.4C1463.6,244.3,1465.3,245.7,1465.3,252.4z"/>
	<path class="st1" d="M1426.6,257.1c2.5-6.8-5.3-12.8-9.2-17.6c-5.4-6.7-9.5-14.5-16.6-19.9c-0.1,6.8-1.3,11.2,2.7,17.2
		c3.9,5.8,7.8,9.9,10.1,16.6c2.7,8,5.5,18.1,11.8,24.5c6.2,6.2,10.8,0.6,7.2-5.6C1430.9,269.2,1417.9,259.4,1426.6,257.1z"/>
	<path class="st1" d="M1065,600.4c-7.5-0.3-8.2,13.2-12.1,16.7c-4.2,3.8-11.8,0.7-15.5,5.3c-2.4,2.9-0.5,8.6-0.4,12
		c0.1,7.5-1.3,4.9-4.8,10.3c-3.2,4.9-2.3,18.6,5.6,20.9c7.5,2.2,13.4-4.2,13.8-9.7c0.6-8,4-12.6,9.1-19.5c1.8-2.4,4.8-5.3,4.8-8.4
		c-0.1-5-3.4-1.5,0.4-6.2c2.1-2.6,3.1,0.1,3.9-4.9C1070.5,611.7,1066.7,605.1,1065,600.4z"/>
	<path class="st1" d="M811.5,276.8c-0.1,1.8-0.2,3.6-0.2,5.4c-1.1-2.4-6.3-3.1-8.6-2.1c-2.5,1.1-1.7,2.9-3.3,3.9
		c-1.6,1.1-5.2,0.8-6.5,1.9c-1.4,1.2,0.2,3.9-0.2,5.1c0.3,1.1,0.7,2.2,1,3.3c-0.8,1-1.9,1.6-3.2,1.9c-1.3,1.9-3.7,0.3-3.3,3.9
		c0.7,5.3,9,3.3,12.2,2.6c4.7-1.1,9-2,11-5.9c1.8-3.5-1.5-11.9,5.1-12.5c1.8-0.1,3.7,1.6,4.3,3c1.6,3.7-0.9,3-2.2,5.1
		c-2.1,3.5-5.4,8.4-8,11.9c2.5,0.2,4.9,0.4,7.4,0.7c-4,2.1-8,4.3-12,6.4c9.3,4.3,13.1-1.5,21.8-2.9c2.4-0.4,19.7-0.6,10.9-5.3
		c9.5-3.3-1.3-9.2-4.1-12.8c-2.4-3.1-6.5-10.2-7.1-14c-0.6-4,2.4-7.1-1.1-9.6c-2.8-2-3.3,2.1-4.5-2c-0.6-2.2,4-3.9-0.3-5.6
		c-8.1-3.1-12,14.8-13,18C808.8,277.2,810.2,277.1,811.5,276.8z"/>
</g>
<g id="Capa_3">
</g>
<g id="Capa_7">
	<rect class="st2" width="1669.4" height="906.3"/>
</g>
<g id="Capa_4" class="st3">
	<rect class="st4" width="1669.4" height="906.3"/>
</g>
</svg>
